<?xml version="1.0" encoding="UTF-8"?>
<svg width="752pt" height="752pt" version="1.1" viewBox="0 0 752 752" xmlns="http://www.w3.org/2000/svg">
 <path d="m405.6 183.61c0-3.9258-1.5625-7.6914-4.3359-10.465-2.7773-2.7773-6.5391-4.3359-10.465-4.3359h-29.598c-5.2891 0-10.176 2.8203-12.816 7.4023-2.6445 4.5781-2.6445 10.219 0 14.797 2.6406 4.5781 7.5273 7.4023 12.816 7.4023v14.797h-59.199c-11.773 0-23.066 4.6797-31.395 13.004-8.3242 8.3281-13.004 19.621-13.004 31.395v88.797c0.042969 5.4727 1.0977 10.895 3.1094 15.984-13.398 2.6992-25.449 9.9492-34.109 20.527-8.6602 10.574-13.395 23.816-13.398 37.484v66.598c0 9.8125 3.8984 19.223 10.836 26.164 6.9414 6.9375 16.352 10.836 26.164 10.836 3.2617-0.035156 6.5-0.53125 9.6172-1.4805 2.8281 8.9844 8.4375 16.836 16.02 22.422 7.582 5.5898 16.742 8.6211 26.16 8.6562h22.199c0 7.8516 3.1172 15.379 8.668 20.93 5.5508 5.5508 13.082 8.668 20.93 8.668h44.398c7.8516 0 15.379-3.1172 20.93-8.668 5.5508-5.5508 8.6719-13.078 8.6719-20.93h22.199c9.418-0.035156 18.578-3.0664 26.16-8.6562 7.582-5.5859 13.191-13.438 16.016-22.422 3.1211 0.94922 6.3594 1.4453 9.6211 1.4805 9.8125 0 19.223-3.8984 26.16-10.836 6.9414-6.9414 10.836-16.352 10.836-26.164v-66.598c-0.003907-13.668-4.7344-26.91-13.395-37.484-8.6602-10.578-20.711-17.828-34.109-20.527 2.0117-5.0898 3.0664-10.512 3.1094-15.984v-88.797c0-11.773-4.6797-23.066-13.004-31.395-8.3281-8.3242-19.621-13.004-31.395-13.004h-59.199v-14.797c3.9258 0 7.6875-1.5625 10.465-4.3359 2.7734-2.7773 4.3359-6.5391 4.3359-10.465zm-77.105 78.141c2.7773-2.8008 6.5625-4.3789 10.508-4.3789 3.9453 0 7.7266 1.5781 10.508 4.3789 2.7578 2.7812 4.3008 6.543 4.2891 10.461-0.007812 3.918-1.5742 7.6719-4.3477 10.441-2.7734 2.7656-6.5312 4.3203-10.449 4.3203-3.918 0-7.6758-1.5547-10.453-4.3203-2.7734-2.7695-4.3359-6.5234-4.3477-10.441-0.011719-3.918 1.5312-7.6797 4.293-10.461zm136.3 129.05v118.39c0 3.9258-1.5586 7.6914-4.332 10.465-2.7773 2.7773-6.543 4.3359-10.465 4.3359h-22.199v-29.598c0-7.8516-3.1211-15.379-8.6719-20.93-5.5508-5.5508-13.078-8.6719-20.93-8.6719h-44.398c-7.8477 0-15.379 3.1211-20.93 8.6719-5.5508 5.5508-8.668 13.078-8.668 20.93v29.598h-22.199c-3.9258 0-7.6875-1.5586-10.465-4.3359-2.7734-2.7734-4.3359-6.5391-4.3359-10.465v-118.39zm-62.305-129.05c2.7773-2.8008 6.5625-4.3789 10.508-4.3789s7.7305 1.5781 10.508 4.3789c2.7578 2.7812 4.3008 6.543 4.293 10.461-0.011719 3.918-1.5742 7.6719-4.3516 10.441-2.7734 2.7656-6.5312 4.3203-10.449 4.3203s-7.6758-1.5547-10.449-4.3203c-2.7773-2.7695-4.3398-6.5234-4.3516-10.441-0.007813-3.918 1.5352-7.6797 4.293-10.461zm4.8828 42.031c3.7539-3.7539 9.2266-5.2227 14.355-3.8477 5.1289 1.375 9.1328 5.3789 10.508 10.508s-0.09375 10.602-3.8477 14.355c-13.883 13.918-32.73 21.738-52.391 21.738-19.656 0-38.508-7.8203-52.387-21.738-3.7539-3.7539-5.2227-9.2266-3.8477-14.355s5.3789-9.1328 10.508-10.508c5.1289-1.375 10.598 0.09375 14.352 3.8477 8.4727 8.0352 19.703 12.516 31.375 12.516 11.676 0 22.906-4.4805 31.375-12.516z" fill="#3b6af9"/>
</svg>
