<?xml version="1.0" standalone="no"?>
<!DOCTYPE svg PUBLIC "-//W3C//DTD SVG 20010904//EN"
 "http://www.w3.org/TR/2001/REC-SVG-20010904/DTD/svg10.dtd">
<svg version="1.0" xmlns="http://www.w3.org/2000/svg"
 width="1212.000000pt" height="1212.000000pt" viewBox="0 0 1212.000000 1212.000000"
 preserveAspectRatio="xMidYMid meet">

<g transform="translate(0.000000,1212.000000) scale(0.100000,-0.100000)"
fill="#000000" stroke="none">
<path d="M5905 10654 c-1301 -87 -2460 -687 -3262 -1689 -114 -142 -299 -413
-389 -570 -306 -534 -499 -1134 -571 -1777 -24 -213 -24 -703 0 -916 114
-1015 533 -1923 1220 -2647 l76 -80 27 27 28 28 -35 37 c-250 268 -430 498
-594 762 -581 934 -794 2075 -589 3146 148 772 482 1465 991 2062 212 248 535
544 798 729 1136 803 2591 1027 3905 602 562 -181 1074 -468 1527 -855 249
-213 542 -533 732 -802 800 -1128 1024 -2588 599 -3901 -198 -613 -515 -1157
-956 -1643 -65 -71 -118 -132 -120 -136 -1 -4 9 -18 23 -31 l25 -24 36 35 c73
69 269 298 368 429 502 664 798 1414 893 2262 24 213 24 703 0 916 -138 1228
-722 2297 -1672 3059 -141 114 -411 297 -570 389 -531 304 -1142 501 -1770
570 -135 14 -597 26 -720 18z"/>
<path d="M5195 8589 c-265 -28 -523 -123 -707 -262 -347 -261 -567 -768 -544
-1257 10 -219 61 -424 156 -626 140 -299 328 -493 603 -624 170 -81 355 -126
565 -137 61 -3 112 -8 112 -10 0 -2 -358 -443 -795 -979 -437 -536 -795 -977
-795 -979 0 -3 272 -5 604 -5 l604 0 694 879 693 878 3 -878 2 -879 515 0 515
0 0 1955 0 1955 610 0 610 0 0 490 0 490 -1682 -1 c-926 -1 -1719 -5 -1763
-10z m1195 -1444 l0 -476 -552 3 -553 3 -60 24 c-190 76 -265 201 -265 441 0
245 95 386 310 460 51 18 91 19 588 20 l532 0 0 -475z"/>
<path d="M3660 2975 c0 -104 2 -125 15 -125 12 0 15 13 15 55 0 73 20 73 51 0
16 -35 30 -55 41 -55 15 0 14 6 -7 54 -22 49 -22 54 -7 70 20 20 22 87 3 110
-9 11 -29 16 -62 16 l-49 0 0 -125z m90 80 c14 -37 -3 -75 -35 -75 -23 0 -25
3 -25 50 0 47 2 50 25 50 18 0 28 -7 35 -25z"/>
<path d="M4012 2978 c3 -119 4 -123 26 -126 15 -2 22 2 22 12 0 9 -4 16 -10
16 -6 0 -10 43 -10 110 0 92 -2 110 -15 110 -13 0 -15 -18 -13 -122z"/>
<path d="M4390 3085 c0 -8 7 -15 15 -15 8 0 15 7 15 15 0 8 -7 15 -15 15 -8 0
-15 -7 -15 -15z"/>
<path d="M4990 2975 c0 -104 2 -125 15 -125 12 0 15 14 15 70 0 60 3 71 21 80
35 19 49 -3 49 -81 0 -55 3 -69 15 -69 12 0 15 15 15 73 0 92 -12 112 -64 104
l-36 -6 0 40 c0 28 -4 39 -15 39 -13 0 -15 -21 -15 -125z"/>
<path d="M5170 3085 c0 -8 9 -15 20 -15 11 0 20 7 20 15 0 8 -9 15 -20 15 -11
0 -20 -7 -20 -15z"/>
<path d="M6130 3065 c0 -31 -3 -35 -27 -35 -50 0 -73 -33 -73 -104 0 -60 18
-76 81 -75 l49 2 0 123 c0 104 -2 124 -15 124 -10 0 -15 -11 -15 -35z m0 -114
c0 -66 -18 -93 -48 -74 -40 25 -17 133 28 133 18 0 20 -7 20 -59z"/>
<path d="M6290 3090 c0 -5 11 -10 25 -10 l25 0 0 -115 c0 -94 3 -115 15 -115
12 0 15 22 17 113 l3 112 28 3 c55 7 25 22 -43 22 -40 0 -70 -4 -70 -10z"/>
<path d="M6750 2975 c0 -104 2 -125 15 -125 12 0 15 14 15 70 0 60 3 71 21 80
35 19 49 -3 49 -81 0 -55 3 -69 15 -69 12 0 15 15 15 73 0 92 -12 112 -64 104
l-36 -6 0 40 c0 28 -4 39 -15 39 -13 0 -15 -21 -15 -125z"/>
<path d="M7300 2991 c0 -60 3 -116 6 -125 8 -20 44 -21 44 -1 0 8 -4 15 -10
15 -6 0 -10 43 -10 110 0 91 -3 110 -15 110 -12 0 -15 -19 -15 -109z"/>
<path d="M8020 2975 l0 -125 61 0 c44 0 60 3 57 13 -3 6 -23 13 -46 15 l-42 3
0 110 c0 90 -3 109 -15 109 -13 0 -15 -21 -15 -125z"/>
<path d="M8340 2975 l0 -125 49 0 c63 0 81 22 81 97 0 65 -19 87 -67 80 -33
-6 -33 -5 -33 34 0 28 -4 39 -15 39 -13 0 -15 -21 -15 -125z m88 23 c7 -7 12
-31 12 -54 0 -46 -21 -77 -49 -72 -23 5 -28 99 -6 122 20 19 27 20 43 4z"/>
<path d="M4280 3050 c0 -11 -4 -20 -10 -20 -5 0 -10 -7 -10 -15 0 -8 5 -15 10
-15 6 0 10 -28 10 -63 0 -68 10 -87 47 -87 28 0 30 16 3 23 -17 4 -20 14 -20
66 0 54 2 61 20 61 11 0 20 7 20 15 0 8 -9 15 -20 15 -13 0 -20 7 -20 20 0 11
-7 20 -15 20 -8 0 -15 -9 -15 -20z"/>
<path d="M3857 3012 c-19 -21 -23 -111 -7 -143 13 -23 90 -28 90 -5 0 9 -11
13 -32 12 -29 -1 -33 2 -36 27 -3 26 -2 27 42 27 44 0 46 1 46 28 0 62 -65 96
-103 54z m61 -14 c7 -7 12 -20 12 -30 0 -13 -8 -18 -30 -18 -25 0 -30 4 -30
24 0 21 10 32 31 35 3 1 10 -4 17 -11z"/>
<path d="M4110 3016 c0 -12 7 -14 29 -10 23 5 32 2 41 -15 12 -23 11 -24 -43
-35 -36 -8 -55 -46 -39 -81 10 -23 17 -25 71 -23 l59 2 -5 60 c-8 91 -20 110
-71 114 -32 2 -42 0 -42 -12z m78 -96 c1 -9 -4 -24 -12 -35 -12 -16 -19 -18
-32 -9 -25 15 -27 29 -8 48 19 20 48 17 52 -4z"/>
<path d="M4390 2940 c0 -73 3 -90 15 -90 12 0 15 17 15 90 0 73 -3 90 -15 90
-12 0 -15 -17 -15 -90z"/>
<path d="M4497 3012 c-23 -25 -23 -124 -1 -146 8 -9 31 -16 49 -16 44 0 65 30
65 90 0 60 -21 90 -64 90 -19 0 -40 -8 -49 -18z m72 -16 c18 -21 10 -107 -11
-119 -28 -18 -48 9 -48 62 0 63 30 92 59 57z"/>
<path d="M4660 2938 c0 -72 3 -88 15 -88 12 0 15 14 15 63 0 69 21 104 54 91
13 -5 16 -21 16 -80 0 -59 3 -74 15 -74 12 0 15 15 15 71 0 98 -7 109 -75 107
l-55 -2 0 -88z"/>
<path d="M4856 3014 c-30 -29 -18 -66 27 -83 21 -8 28 -17 25 -34 -2 -18 -9
-22 -35 -21 -22 1 -33 -3 -33 -12 0 -18 71 -19 88 -2 7 7 12 26 12 43 0 26 -6
34 -35 48 -19 9 -35 23 -35 31 0 17 27 28 51 21 13 -4 19 -1 19 9 0 22 -63 21
-84 0z"/>
<path d="M5170 2940 c0 -73 3 -90 15 -90 12 0 15 17 15 90 0 73 -3 90 -15 90
-12 0 -15 -17 -15 -90z"/>
<path d="M5260 2909 c0 -99 3 -119 15 -119 10 0 15 10 15 30 0 27 3 30 34 30
43 0 58 19 64 80 7 74 -13 100 -78 99 l-50 -2 0 -118z m94 69 c13 -37 -1 -96
-24 -103 -32 -10 -40 3 -40 60 0 41 4 56 18 64 24 14 35 9 46 -21z"/>
<path d="M5445 3006 c-21 -31 -6 -63 36 -78 16 -5 29 -16 29 -23 0 -20 -27
-37 -50 -30 -14 5 -20 2 -20 -9 0 -26 76 -22 90 5 18 33 8 63 -28 79 -42 19
-42 56 1 53 18 -1 27 3 27 13 0 9 -11 14 -35 14 -26 0 -39 -6 -50 -24z"/>
<path d="M5687 3023 c-16 -15 -5 -22 30 -20 33 2 38 -1 41 -20 3 -19 -1 -23
-26 -23 -35 0 -62 -27 -62 -62 0 -37 19 -48 83 -46 54 1 69 9 47 23 -5 3 -10
34 -10 69 0 35 -5 67 -12 74 -13 13 -80 17 -91 5z m73 -112 c0 -30 -19 -45
-45 -35 -32 13 -10 64 27 64 13 0 18 -8 18 -29z"/>
<path d="M5850 2938 c0 -72 3 -88 15 -88 12 0 15 14 15 64 0 68 18 103 47 92
8 -3 17 -6 19 -6 2 0 4 -34 4 -75 0 -60 3 -75 15 -75 12 0 15 15 15 71 0 98
-7 109 -75 107 l-55 -2 0 -88z"/>
<path d="M6456 3014 c-31 -30 -34 -116 -5 -150 16 -19 89 -19 89 1 0 11 -7 13
-29 9 -23 -5 -32 -2 -40 14 -19 35 -13 42 34 42 44 0 45 1 45 31 0 46 -16 69
-50 69 -16 0 -36 -7 -44 -16z m65 -25 c14 -26 0 -42 -32 -37 -29 4 -34 21 -14
42 22 21 32 20 46 -5z"/>
<path d="M6616 3008 c-9 -12 -16 -43 -16 -68 0 -61 21 -90 66 -90 24 0 34 5
34 15 0 11 -7 14 -24 9 -30 -7 -46 18 -46 70 0 41 24 69 51 61 13 -4 19 -2 19
9 0 26 -65 21 -84 -6z"/>
<path d="M6930 2938 c0 -72 3 -88 15 -88 12 0 15 14 15 64 0 68 18 103 47 92
8 -3 17 -6 19 -6 2 0 4 -34 4 -75 0 -60 3 -75 15 -75 12 0 15 15 15 71 0 98
-7 109 -75 107 l-55 -2 0 -88z"/>
<path d="M7129 3009 c-18 -18 -21 -30 -17 -75 3 -29 10 -60 17 -68 16 -19 84
-21 99 -3 28 34 25 122 -5 152 -21 22 -70 18 -94 -6z m67 -7 c33 -21 26 -117
-8 -128 -28 -9 -48 19 -48 67 0 49 28 80 56 61z"/>
<path d="M7406 3008 c-9 -12 -16 -43 -16 -68 0 -63 21 -90 70 -90 48 0 62 21
63 91 1 60 -22 89 -69 89 -23 0 -38 -7 -48 -22z m72 -11 c11 -13 16 -45 14
-89 -1 -18 -9 -29 -24 -34 -28 -8 -48 18 -48 64 0 59 31 91 58 59z"/>
<path d="M7585 3010 c-13 -14 -16 -28 -11 -52 3 -18 7 -46 9 -63 2 -28 5 -30
47 -35 37 -4 46 -9 48 -27 3 -21 0 -23 -47 -23 -58 0 -68 -16 -16 -26 71 -13
115 19 96 69 -10 27 -44 40 -79 30 -16 -4 -22 -1 -22 11 0 12 9 16 34 16 44 0
69 24 64 61 -3 17 1 30 9 33 33 13 8 26 -50 26 -51 0 -68 -4 -82 -20z m85 -15
c26 -32 -13 -81 -47 -59 -35 22 -23 74 17 74 10 0 23 -7 30 -15z"/>
<path d="M7750 3022 c0 -4 13 -47 29 -96 28 -86 29 -88 10 -107 -25 -25 -24
-29 5 -29 28 0 29 3 66 138 24 89 26 103 12 100 -11 -2 -21 -24 -31 -66 -8
-34 -18 -62 -23 -62 -4 0 -8 5 -8 11 0 33 -33 119 -46 119 -8 0 -14 -3 -14 -8z"/>
<path d="M8177 3023 c-16 -15 -5 -22 30 -20 33 2 38 -1 41 -20 3 -19 -1 -23
-26 -23 -35 0 -62 -27 -62 -62 0 -37 19 -48 83 -46 54 1 69 9 47 23 -5 3 -10
34 -10 69 0 35 -5 67 -12 74 -13 13 -80 17 -91 5z m73 -112 c0 -30 -19 -45
-45 -35 -32 13 -10 64 27 64 13 0 18 -8 18 -29z"/>
</g>
</svg>
